<svg width="99" height="57" viewBox="0 0 99 57" fill="none" xmlns="http://www.w3.org/2000/svg">
<path d="M96.0932 20.2848C97.7791 16.466 97.0755 11.8332 93.9621 8.7082C93.5169 8.26133 92.8708 8.14883 92.3182 8.35664C92.3462 5.6582 91.3406 2.95039 89.292 0.895703C88.6833 0.284766 87.6995 0.284766 87.0908 0.895703L76.3807 11.6457C75.7067 10.5332 74.9112 9.47539 73.9585 8.51289C70.7999 5.3207 66.6031 3.56289 62.1369 3.56289C62.1354 3.56289 62.1354 3.56289 62.1354 3.56289C57.6692 3.56289 53.4692 5.3207 50.3107 8.51289L49.2723 9.56289L48.234 8.51289C45.0755 5.3207 40.8771 3.56289 36.4093 3.56289C31.9432 3.56289 27.7463 5.3207 24.5878 8.51289C23.6351 9.47539 22.8396 10.5332 22.1655 11.6457L11.4555 0.895703C10.8468 0.284766 9.86295 0.284766 9.25428 0.895703C7.20722 2.95039 6.20159 5.6582 6.22806 8.35664C5.67543 8.14883 5.0294 8.26133 4.58418 8.7082C1.46923 11.8332 0.7656 16.466 2.45151 20.2848C-0.996584 24.3676 -0.80978 30.5051 3.02748 34.3551C8.33894 39.6879 15.4048 42.6254 22.9205 42.6254H34.7157L48.1687 56.2254C48.4613 56.5223 48.8583 56.6879 49.2723 56.6879C49.688 56.6879 50.0834 56.5223 50.3776 56.2254L63.8306 42.6254H75.6257C83.1399 42.6254 90.2058 39.6879 95.5172 34.3551C99.3545 30.5051 99.5413 24.366 96.0932 20.2848ZM22.9205 39.5004C16.2376 39.5004 9.9548 36.8879 5.23021 32.1457C2.78153 29.6879 2.45462 25.8941 4.24794 23.0801L10.8125 29.6676L13.0137 27.4582L8.34361 22.7707L6.78691 21.2082C4.33822 18.7504 4.01132 14.9566 5.80464 12.1426L13.9259 20.2926L16.1271 18.0832L13.0137 14.9582L11.457 13.3957C9.00832 10.9379 8.68142 7.14414 10.4747 4.33008L20.7396 14.6316C18.5742 20.6145 19.8461 27.5926 24.5893 32.3863L31.624 39.5004H22.9205ZM49.2723 52.9082L26.7983 30.1848C21.4868 24.816 21.4868 16.0832 26.7983 10.7145C29.3653 8.11914 32.7791 6.68789 36.4109 6.68789C40.0411 6.68789 43.4565 8.11758 46.0251 10.7145L48.1687 12.8816C48.7524 13.4723 49.7954 13.4723 50.3792 12.8816L52.5227 10.7145C55.0897 8.11758 58.5036 6.68789 62.1354 6.68789C65.7671 6.68789 69.1794 8.11914 71.748 10.7145C77.0594 16.0832 77.0594 24.816 71.748 30.1848L49.2723 52.9082ZM93.316 32.1457C88.5915 36.8879 82.3086 39.5004 75.6257 39.5004H66.9222L73.9585 32.3863C78.7017 27.5926 79.9736 20.6145 77.8082 14.6316L88.0731 4.33008C89.8664 7.14414 89.5395 10.9379 87.0908 13.3957L85.5341 14.9582L82.4207 18.0832L84.6219 20.2926L92.7432 12.1426C94.5365 14.9566 94.2096 18.7504 91.7609 21.2082L90.2042 22.7707L85.5341 27.4582L87.7353 29.6676L94.2999 23.0801C96.0916 25.8941 95.7647 29.6879 93.316 32.1457Z" fill="#8DA399"/>
</svg>
