<svg width="535" height="398" viewBox="0 0 535 398" fill="none" xmlns="http://www.w3.org/2000/svg">
<path d="M291.093 221.285C292.779 217.466 292.075 212.833 288.962 209.708C288.517 209.261 287.871 209.149 287.318 209.357C287.346 206.658 286.341 203.95 284.292 201.896C283.683 201.285 282.699 201.285 282.091 201.896L271.381 212.646C270.707 211.533 269.911 210.475 268.958 209.513C265.8 206.321 261.603 204.563 257.137 204.563C257.135 204.563 257.135 204.563 257.135 204.563C252.669 204.563 248.469 206.321 245.311 209.513L244.272 210.563L243.234 209.513C240.075 206.321 235.877 204.563 231.409 204.563C226.943 204.563 222.746 206.321 219.588 209.513C218.635 210.475 217.84 211.533 217.166 212.646L206.455 201.896C205.847 201.285 204.863 201.285 204.254 201.896C202.207 203.95 201.202 206.658 201.228 209.357C200.675 209.149 200.029 209.261 199.584 209.708C196.469 212.833 195.766 217.466 197.452 221.285C194.003 225.368 194.19 231.505 198.027 235.355C203.339 240.688 210.405 243.625 217.921 243.625H229.716L243.169 257.225C243.461 257.522 243.858 257.688 244.272 257.688C244.688 257.688 245.083 257.522 245.378 257.225L258.831 243.625H270.626C278.14 243.625 285.206 240.688 290.517 235.355C294.354 231.505 294.541 225.366 291.093 221.285ZM217.921 240.5C211.238 240.5 204.955 237.888 200.23 233.146C197.782 230.688 197.455 226.894 199.248 224.08L205.813 230.668L208.014 228.458L203.344 223.771L201.787 222.208C199.338 219.75 199.011 215.957 200.805 213.143L208.926 221.293L211.127 219.083L208.014 215.958L206.457 214.396C204.008 211.938 203.681 208.144 205.475 205.33L215.74 215.632C213.574 221.614 214.846 228.593 219.589 233.386L226.624 240.5H217.921ZM244.272 253.908L221.798 231.185C216.487 225.816 216.487 217.083 221.798 211.714C224.365 209.119 227.779 207.688 231.411 207.688C235.041 207.688 238.457 209.118 241.025 211.714L243.169 213.882C243.752 214.472 244.795 214.472 245.379 213.882L247.523 211.714C250.09 209.118 253.504 207.688 257.135 207.688C260.767 207.688 264.179 209.119 266.748 211.714C272.059 217.083 272.059 225.816 266.748 231.185L244.272 253.908ZM288.316 233.146C283.591 237.888 277.309 240.5 270.626 240.5H261.922L268.958 233.386C273.702 228.593 274.974 221.614 272.808 215.632L283.073 205.33C284.866 208.144 284.539 211.938 282.091 214.396L280.534 215.958L277.421 219.083L279.622 221.293L287.743 213.143C289.536 215.957 289.21 219.75 286.761 222.208L285.204 223.771L280.534 228.458L282.735 230.668L289.3 224.08C291.092 226.894 290.765 230.688 288.316 233.146Z" fill="white"/>
<path d="M244.272 268.625C232.91 268.625 219.365 269.439 219.365 273.312C219.365 277.186 232.91 278 244.272 278C255.634 278 269.179 277.186 269.179 273.312C269.179 269.439 255.634 268.625 244.272 268.625ZM244.272 274.875C234.108 274.875 227.379 274.058 224.209 273.312C227.379 272.567 234.107 271.75 244.272 271.75C254.436 271.75 261.165 272.567 264.335 273.312C261.165 274.058 254.437 274.875 244.272 274.875Z" fill="white"/>
<path d="M244.272 199.875C259.364 199.875 275.406 196.042 275.406 188.938C275.406 181.833 259.364 178 244.272 178C229.18 178 213.138 181.833 213.138 188.938C213.138 196.042 229.18 199.875 244.272 199.875ZM244.272 181.125C261.632 181.125 272.293 185.675 272.293 188.938C272.293 192.2 261.632 196.75 244.272 196.75C226.912 196.75 216.252 192.2 216.252 188.938C216.252 185.675 226.912 181.125 244.272 181.125Z" fill="white"/>
<path d="M228.642 192.694C232.829 193.295 238.38 193.625 244.272 193.625C250.164 193.625 255.717 193.295 259.903 192.694C265.459 191.897 267.623 190.844 267.623 188.938C267.623 187.031 265.457 185.978 259.903 185.181C255.717 184.58 250.164 184.25 244.272 184.25C238.38 184.25 232.829 184.58 228.642 185.181C223.087 185.978 220.922 187.031 220.922 188.938C220.922 190.844 223.087 191.897 228.642 192.694ZM244.272 187.375C253.781 187.375 260.065 188.198 262.981 188.938C260.067 189.677 253.782 190.5 244.272 190.5C234.764 190.5 228.478 189.677 225.564 188.938C228.48 188.198 234.764 187.375 244.272 187.375Z" fill="white"/>
<path d="M15.1075 218.022C14.7286 219.598 13.183 220.781 11.3385 220.781C10.8467 220.781 10.448 221.144 10.448 221.591C10.448 222.039 10.8467 222.401 11.3385 222.401C14.1611 222.401 16.5058 220.505 16.9147 218.04C18.6429 217.87 20.2382 217.169 21.4732 216.023C21.8174 215.703 21.8116 215.19 21.4603 214.877C21.1091 214.565 20.5453 214.57 20.2011 214.889C19.1089 215.903 17.6481 216.462 16.0876 216.462C12.9124 216.462 10.3293 214.112 10.3293 211.224C10.3293 210.777 9.93058 210.414 9.4388 210.414C8.94703 210.414 8.54834 210.777 8.54834 211.224C8.54834 214.703 11.412 217.583 15.1075 218.022Z" fill="white"/>
<path d="M18.8777 225.048C18.8777 224.601 18.479 224.238 17.9873 224.238C13.8301 224.238 10.448 227.315 10.448 231.096C10.448 231.135 10.4495 231.174 10.4503 231.213C10.1191 231.173 9.78193 231.15 9.4388 231.15C8.94703 231.15 8.54834 231.512 8.54834 231.96C8.54834 232.407 8.94703 232.77 9.4388 232.77C12.614 232.77 15.1971 235.119 15.1971 238.007C15.1971 238.455 15.5958 238.817 16.0876 238.817C16.5794 238.817 16.9781 238.455 16.9781 238.007C16.9781 235.133 15.0236 232.668 12.2609 231.65C12.2397 231.467 12.2289 231.281 12.2289 231.096C12.2289 228.208 14.8121 225.858 17.9873 225.858C18.479 225.858 18.8777 225.496 18.8777 225.048Z" fill="white"/>
<path d="M49.2724 218.136C49.2724 216.292 48.4626 214.545 47.0313 213.26C47.258 212.6 47.3727 211.918 47.3727 211.225C47.3727 207.89 44.7426 205.106 41.2708 204.494C41.5361 203.892 41.6737 203.247 41.6737 202.585C41.6737 200.473 40.2629 198.656 38.2536 197.87C34.9061 195.445 31.2448 194 28.4355 194C26.8739 194 25.489 194.698 24.6362 195.769C23.7833 194.698 22.3985 194 20.8369 194C18.0275 194 14.3663 195.445 11.0187 197.87C9.00948 198.656 7.59863 200.473 7.59863 202.585C7.59863 203.247 7.73623 203.892 8.00159 204.494C4.52973 205.106 1.89966 207.89 1.89966 211.225C1.89966 211.918 2.01423 212.6 2.241 213.26C0.809729 214.545 0 216.292 0 218.136C0 219.578 0.492605 220.916 1.3313 222.021C0.459717 223.167 0 224.504 0 225.911C0 228.405 1.49444 230.689 3.86058 231.894C3.81985 232.202 3.79931 232.513 3.79931 232.823C3.79931 236.186 6.21128 239.16 9.71081 240.173C11.233 242.543 14.0058 244 17.0375 244C20.3614 244 23.2434 242.253 24.6362 239.716C26.029 242.253 28.911 244 32.2348 244C35.2665 244 38.0393 242.543 39.5615 240.173C43.0611 239.16 45.473 236.186 45.473 232.823C45.473 232.513 45.4525 232.202 45.4118 231.894C47.7779 230.689 49.2724 228.405 49.2724 225.911C49.2724 224.504 48.8126 223.167 47.941 222.021C48.7797 220.916 49.2724 219.578 49.2724 218.136ZM17.0375 242.38C14.5408 242.38 12.2657 241.128 11.1001 239.113C10.9845 238.913 10.7829 238.766 10.5435 238.708C7.62119 237.992 5.58024 235.572 5.58024 232.823C5.58024 232.411 5.62583 231.999 5.71571 231.598C5.79906 231.226 5.58665 230.851 5.20494 230.696C3.12494 229.855 1.78093 227.977 1.78093 225.911C1.78093 224.972 2.04878 224.074 2.55991 223.279C3.88919 224.345 5.63201 224.994 7.53926 224.994C8.03104 224.994 8.42973 224.631 8.42973 224.184C8.42973 223.736 8.03104 223.374 7.53926 223.374C4.36411 223.374 1.78093 221.024 1.78093 218.136C1.78093 216.581 2.53509 215.116 3.85013 214.117C4.14695 213.891 4.24965 213.517 4.10421 213.191C3.82306 212.56 3.68059 211.899 3.68059 211.225C3.68059 208.337 6.26376 205.987 9.43892 205.987C12.6141 205.987 15.1973 208.337 15.1973 211.225C15.1973 211.672 15.5959 212.035 16.0877 212.035C16.5795 212.035 16.9782 211.672 16.9782 211.225C16.9782 207.592 13.8554 204.611 9.92321 204.383C9.56679 203.841 9.37956 203.225 9.37956 202.585C9.37956 201.142 10.3432 199.899 11.7159 199.361C11.769 199.346 11.821 199.328 11.8712 199.304C12.2965 199.157 12.757 199.076 13.2382 199.076C14.7291 199.076 16.0601 199.834 16.7118 201.055C16.9267 201.457 17.4595 201.625 17.9018 201.429C18.3442 201.234 18.5287 200.749 18.3138 200.347C17.5698 198.954 16.1618 197.952 14.5403 197.597C16.813 196.336 19.0505 195.62 20.8369 195.62C22.4408 195.62 23.7457 196.807 23.7457 198.266V208.746C22.9456 208.169 21.9351 207.823 20.8369 207.823C20.3451 207.823 19.9464 208.185 19.9464 208.633C19.9464 209.08 20.3451 209.443 20.8369 209.443C22.4408 209.443 23.7457 210.63 23.7457 212.089V231.557C22.6386 230.258 21.0778 229.277 19.2417 228.829C18.7669 228.713 18.2784 228.969 18.1507 229.401C18.0231 229.833 18.3047 230.277 18.7797 230.393C21.7036 231.108 23.7457 233.528 23.7457 236.279C23.7457 239.643 20.7364 242.38 17.0375 242.38ZM44.0674 230.696C43.6857 230.851 43.4733 231.226 43.5566 231.598C43.6465 231.999 43.6921 232.412 43.6921 232.823C43.6921 235.573 41.6512 237.992 38.7289 238.708C38.4894 238.766 38.2877 238.913 38.1723 239.113C37.0066 241.128 34.7315 242.38 32.2348 242.38C28.5359 242.38 25.5266 239.643 25.5266 236.279C25.5266 236.051 25.515 235.825 25.4933 235.601C25.5144 235.532 25.5266 235.46 25.5266 235.384V208.633C25.5266 207.174 26.8316 205.987 28.4355 205.987C28.9273 205.987 29.326 205.625 29.326 205.177C29.326 204.73 28.9273 204.367 28.4355 204.367C27.3372 204.367 26.3268 204.713 25.5266 205.291V198.266C25.5266 196.807 26.8316 195.62 28.4355 195.62C30.2219 195.62 32.4593 196.336 34.732 197.597C33.1105 197.952 31.7025 198.954 30.9586 200.347C30.7437 200.749 30.9282 201.234 31.3706 201.429C31.813 201.625 32.3457 201.457 32.5606 201.055C33.2123 199.834 34.5432 199.076 36.0341 199.076C36.5153 199.076 36.976 199.157 37.4012 199.304C37.4513 199.328 37.5033 199.346 37.5561 199.361C38.9291 199.899 39.8928 201.141 39.8928 202.585C39.8928 203.225 39.7056 203.841 39.3491 204.383C35.417 204.611 32.2942 207.592 32.2942 211.225C32.2942 211.672 32.6929 212.035 33.1846 212.035C33.6764 212.035 34.0751 211.672 34.0751 211.225C34.0751 208.337 36.6583 205.987 39.8334 205.987C43.0086 205.987 45.5918 208.337 45.5918 211.225C45.5918 211.899 45.4493 212.56 45.1683 213.191C45.0228 213.517 45.1255 213.891 45.4223 214.117C46.7373 215.116 47.4914 216.581 47.4914 218.136C47.4914 221.024 44.9082 223.374 41.7331 223.374C41.2413 223.374 40.8426 223.736 40.8426 224.184C40.8426 224.631 41.2413 224.994 41.7331 224.994C43.6403 224.994 45.3832 224.345 46.7124 223.279C47.2237 224.074 47.4914 224.972 47.4914 225.911C47.4914 227.977 46.1474 229.855 44.0674 230.696Z" fill="white"/>
<path d="M39.8335 219.918C37.9889 219.918 36.4433 218.734 36.0645 217.158C39.76 216.72 42.6236 213.84 42.6236 210.361C42.6236 209.913 42.2249 209.551 41.7332 209.551C41.2414 209.551 40.8427 209.913 40.8427 210.361C40.8427 213.249 38.2595 215.598 35.0844 215.598C33.5239 215.598 32.0631 215.04 30.9709 214.026C30.6268 213.706 30.063 213.701 29.7117 214.014C29.3604 214.327 29.3545 214.84 29.6987 215.16C30.9337 216.306 32.5291 217.007 34.2573 217.176C34.6662 219.642 37.0109 221.538 39.8335 221.538C40.3253 221.538 40.724 221.175 40.724 220.728C40.724 220.28 40.3253 219.918 39.8335 219.918Z" fill="white"/>
<path d="M36.9843 229.423C36.6412 229.423 36.304 229.446 35.9729 229.487C35.9736 229.447 35.9751 229.408 35.9751 229.369C35.9751 225.588 32.593 222.512 28.4359 222.512C27.9441 222.512 27.5454 222.874 27.5454 223.322C27.5454 223.769 27.9441 224.132 28.4359 224.132C31.611 224.132 34.1942 226.481 34.1942 229.369C34.1942 229.554 34.1834 229.74 34.1623 229.923C31.3996 230.942 29.4451 233.407 29.4451 236.281C29.4451 236.728 29.8438 237.091 30.3355 237.091C30.8273 237.091 31.226 236.728 31.226 236.281C31.226 233.393 33.8092 231.043 36.9843 231.043C37.4761 231.043 37.8748 230.681 37.8748 230.233C37.8748 229.786 37.4761 229.423 36.9843 229.423Z" fill="white"/>
<path d="M409.614 73C405.643 73 401.235 76.5469 401.037 82.2759C400.975 84.057 401.711 85.8973 402.488 87.8455C402.662 88.2791 402.835 88.7164 403.002 89.1567C403.828 85.1018 407.075 81.8777 410.713 81.8777C411.2 81.8777 411.593 82.3046 411.593 82.8327C411.593 83.3608 411.2 83.7877 410.713 83.7877C407.49 83.7877 404.554 87.2944 404.554 91.145C404.554 91.5728 404.288 91.9138 403.931 92.0341C401.538 90.7993 399.276 86.8255 399.276 81.935C399.276 81.4069 398.883 80.98 398.396 80.98C397.91 80.98 397.516 81.4069 397.516 81.935C397.516 86.7062 399.447 91.0419 402.104 93.0951C399.676 94.0654 397.707 96.0575 396.637 98.595C395.568 96.0575 393.597 94.0664 391.169 93.0951C393.826 91.0419 395.757 86.7062 395.757 81.935C395.757 81.4069 395.363 80.98 394.877 80.98C394.39 80.98 393.997 81.4069 393.997 81.935C393.997 86.8255 391.735 90.8003 389.342 92.0341C388.985 91.9138 388.718 91.5728 388.718 91.145C388.718 87.2944 385.782 83.7877 382.559 83.7877C382.072 83.7877 381.679 83.3608 381.679 82.8327C381.679 82.3046 382.072 81.8777 382.559 81.8777C386.197 81.8777 389.446 85.1018 390.27 89.1567C390.437 88.7164 390.611 88.2791 390.784 87.8455C391.563 85.8973 392.298 84.057 392.236 82.2759C392.038 76.5469 387.63 73 383.658 73C377.23 73 372 82.4249 372 94.01C372 105.595 377.23 115.02 383.658 115.02C386.027 115.02 390.436 115.02 392.186 109.606C392.879 107.464 391.999 104.928 390.98 101.99C390.481 100.552 389.948 99.0018 389.587 97.4184C388.593 100.889 386.018 103.843 382.558 103.843C382.072 103.843 381.678 103.416 381.678 102.888C381.678 102.36 382.072 101.933 382.558 101.933C385.956 101.933 388.244 98.0411 388.279 94.3739C392.441 94.625 395.757 98.3667 395.757 102.945V122.045C395.757 122.573 396.15 123 396.637 123C397.123 123 397.516 122.573 397.516 122.045V102.945C397.516 98.3677 400.833 94.625 404.993 94.3739C405.029 98.0411 407.316 101.933 410.714 101.933C411.201 101.933 411.594 102.36 411.594 102.888C411.594 103.416 411.201 103.843 410.714 103.843C407.255 103.843 404.679 100.89 403.685 97.4184C403.323 99.0018 402.791 100.553 402.292 101.99C401.273 104.927 400.394 107.463 401.086 109.606C402.836 115.02 407.246 115.02 409.614 115.02C416.043 115.02 421.272 105.595 421.272 94.01C421.272 82.4249 416.043 73 409.614 73ZM382.559 94.35C382.072 94.35 381.679 93.9231 381.679 93.395C381.679 92.8669 382.072 92.44 382.559 92.44H387.838C387.352 92.44 386.958 92.8669 386.958 93.395C386.958 93.9231 387.352 94.35 387.838 94.35H382.559ZM410.714 94.35H405.435C405.922 94.35 406.315 93.9231 406.315 93.395C406.315 92.8669 405.922 92.44 405.435 92.44H410.714C411.201 92.44 411.594 92.8669 411.594 93.395C411.594 93.9231 411.201 94.35 410.714 94.35Z" fill="white"/>
<path d="M270.214 391.694C269.57 387.276 268.384 380.684 266.453 374.378C263.959 366.255 260.841 360.673 257.171 357.776C256.336 357.112 255.331 356.765 254.285 356.765C251.7 356.765 249.588 358.878 249.588 361.48V372.051L247.718 370.082V350.071C247.718 348.929 246.793 348 245.656 348C244.52 348 243.595 348.929 243.595 350.071V369.898L241.684 371.908V361.48C241.684 358.878 239.582 356.765 236.988 356.765C235.942 356.765 234.936 357.112 234.101 357.776C230.431 360.673 227.313 366.255 224.819 374.378C222.889 380.673 221.702 387.276 221.058 391.694C220.827 393.276 221.29 394.878 222.336 396.092C223.371 397.306 224.88 398 226.479 398H230.059C230.984 398 231.809 397.378 232.05 396.48C232.633 394.347 234.423 392.765 236.585 392.388C238.697 392.02 238.295 389.806 238.295 389.653C238.295 387.765 239.22 386.01 240.779 384.949C241.342 384.561 241.684 383.918 241.684 383.224V377.878L245.566 373.816L249.588 378.041V383.224C249.588 383.908 249.93 384.561 250.493 384.949C252.052 386.01 252.977 387.776 252.977 389.653C252.977 389.806 252.575 392.01 254.687 392.388C256.849 392.765 258.639 394.347 259.222 396.48C259.474 397.378 260.288 398 261.213 398H264.794C266.393 398 267.901 397.306 268.947 396.092C269.983 394.878 270.445 393.276 270.214 391.694V391.694ZM237.551 382.204C235.64 383.867 234.443 386.194 234.202 388.724C231.748 389.612 229.727 391.459 228.621 393.837H226.479C225.946 393.837 225.614 393.541 225.463 393.367C225.312 393.194 225.071 392.816 225.151 392.286C225.775 388.01 226.921 381.643 228.772 375.592C230.974 368.398 233.709 363.367 236.656 361.041C236.766 360.959 236.867 360.918 236.988 360.918C237.169 360.918 237.551 361.051 237.551 361.469V382.204ZM265.809 393.378C265.658 393.551 265.327 393.847 264.794 393.847H262.652C261.545 391.469 259.534 389.612 257.07 388.735C256.829 386.204 255.632 383.878 253.721 382.214V361.48C253.721 361.061 254.094 360.929 254.285 360.929C254.405 360.929 254.516 360.969 254.617 361.051C257.563 363.378 260.298 368.408 262.501 375.602C264.361 381.653 265.498 388.02 266.121 392.296C266.201 392.827 265.96 393.204 265.809 393.378V393.378Z" fill="white"/>
<path d="M489.033 211.485C489.033 210.801 488.895 210.127 488.622 209.474C488.989 208.818 489.183 208.102 489.183 207.385C489.183 206.423 488.847 205.494 488.225 204.694C488.756 203.848 489.033 202.9 489.033 201.912C489.033 199.337 487.131 197.109 484.541 196.56C483.054 194.29 479.898 193.332 477.322 194.507C475.198 193.546 472.662 193.998 471.026 195.462C469.248 193.563 466.167 193.587 464.407 195.507C462.46 193.807 459.223 193.506 456.913 194.924C454.682 193.515 451.611 193.773 449.649 195.487C448.69 194.905 447.589 194.591 446.474 194.591C443.152 194.591 440.45 197.192 440.45 200.39C440.45 201.316 440.676 202.214 441.11 203.029C440.39 203.986 440 205.13 440 206.317C440 207.012 440.14 207.698 440.416 208.363C440.142 208.876 440 209.414 440 209.963C440 210.967 440.443 211.904 441.25 212.661C440.443 213.416 440 214.355 440 215.359C440 216.366 440.439 217.307 441.25 218.071C441.066 218.651 440.974 219.242 440.974 219.842C440.974 222.801 443.179 225.298 446.052 225.659C446.528 226.079 447.043 226.465 447.583 226.818C450.015 228.401 452.908 229.296 453.899 227.73C454.766 226.367 453.331 224.516 451.589 223.115C452.229 222.152 452.573 221.021 452.573 219.84C452.573 218.646 452.218 217.51 451.539 216.52C451.677 216.143 451.748 215.755 451.748 215.36C451.748 214.355 451.306 213.418 450.497 212.661C451.306 211.906 451.748 210.967 451.748 209.964C451.748 209.415 451.608 208.879 451.332 208.364C451.606 207.698 451.748 207.012 451.748 206.317C451.748 205.954 451.709 205.589 451.634 205.233C453.582 205.92 455.809 205.549 457.402 204.322C459.659 205.444 462.588 205.049 464.406 203.463C466.163 205.385 469.248 205.406 471.026 203.508C472.67 204.977 475.195 205.428 477.323 204.458C477.694 204.625 478.081 204.75 478.488 204.837L478.532 204.909C478.007 205.661 477.73 206.505 477.73 207.384C477.73 207.987 477.869 208.583 478.138 209.158C477.774 209.893 477.581 210.686 477.581 211.484C477.581 212.547 477.916 213.589 478.532 214.485C478.007 215.234 477.73 216.079 477.73 216.957C477.73 217.777 477.978 218.575 478.441 219.291C477.151 220.327 476.38 221.854 476.38 223.49L476.389 223.649C475.631 224.243 475.039 225.029 474.684 225.897C473.143 225.795 471.609 226.332 470.463 227.354C469.554 226.8 468.503 226.5 467.431 226.5C465.658 226.5 464.029 227.278 462.947 228.612C459.307 227.787 456.017 230.554 456.017 233.975C456.017 234.866 456.249 235.744 456.691 236.539C456.562 237.347 456.711 238.715 457.09 241.307C457.197 242.022 457.314 242.834 457.314 243.054C457.314 243.573 457.732 244 458.247 244C458.762 244 459.18 243.573 459.18 243.054C459.18 242.706 459.093 242.091 458.935 241.028C458.76 239.832 458.397 237.345 458.477 236.935C458.687 236.615 458.687 236.197 458.475 235.877C458.089 235.289 457.883 234.635 457.883 233.975C457.883 231.982 459.615 230.368 461.742 230.368C462.152 230.368 462.572 230.441 463.027 230.595C463.43 230.728 463.88 230.565 464.109 230.203C464.816 229.066 466.059 228.393 467.432 228.393C468.357 228.393 469.259 228.722 469.979 229.318C470.369 229.649 470.95 229.593 471.282 229.199C472.211 228.082 473.774 227.589 475.14 227.87C475.647 227.979 476.12 227.655 476.233 227.154C476.437 226.249 477.035 225.424 477.866 224.906C478.19 224.707 478.347 224.235 478.285 223.858L478.246 223.492C478.246 222.195 479.015 220.996 480.25 220.355C480.522 220.215 480.706 219.95 480.751 219.645C480.789 219.343 480.689 219.036 480.471 218.824C480.07 218.439 479.596 217.805 479.596 216.959C479.596 216.154 480.032 215.537 480.401 215.162C480.751 214.801 480.758 214.218 480.416 213.846C479.789 213.178 479.447 212.34 479.447 211.488C479.447 210.86 479.629 210.253 479.989 209.682C480.183 209.373 480.184 208.978 479.993 208.667C479.727 208.241 479.596 207.811 479.596 207.388C479.596 206.584 480.032 205.968 480.401 205.591C480.751 205.228 480.758 204.644 480.416 204.275C480.208 204.052 480.022 203.801 479.877 203.528C479.738 203.262 479.476 203.084 479.184 203.042C478.678 202.975 478.2 202.82 477.763 202.577C477.486 202.426 477.147 202.426 476.871 202.577C475.045 203.586 472.808 203.02 471.707 201.485C471.521 201.225 471.267 201.057 470.906 201.097C470.592 201.111 470.308 201.286 470.148 201.56C469.59 202.522 468.687 203.098 467.732 203.098C466.764 203.098 465.856 202.509 465.292 201.526C465.135 201.25 464.856 201.074 464.542 201.055C464.236 201.029 463.928 201.176 463.74 201.429C462.484 203.124 459.684 203.601 457.785 202.382C457.425 202.145 456.949 202.196 456.639 202.499C455.158 203.941 452.63 204.086 450.955 202.732C450.558 202.406 449.89 202.579 449.566 202.977L449.425 203.139C449.083 203.453 449.02 203.972 449.274 204.362C449.675 204.973 449.876 205.634 449.876 206.324C449.876 206.884 449.731 207.442 449.442 207.986C449.27 208.309 449.299 208.703 449.515 208.998C449.755 209.328 449.876 209.655 449.876 209.969C449.876 210.663 449.352 211.342 448.438 211.828C448.133 211.993 447.94 212.315 447.94 212.665C447.94 213.015 448.133 213.337 448.438 213.503C449.352 213.991 449.876 214.668 449.876 215.361C449.876 215.629 449.8 215.887 449.643 216.157C449.44 216.507 449.475 216.948 449.737 217.257C450.175 217.777 450.701 218.65 450.701 219.842C450.701 220.891 450.302 221.879 449.576 222.635C449.383 222.832 449.287 223.112 449.315 223.387C449.343 223.667 449.49 223.918 449.718 224.075C451.268 225.148 452.058 226.183 452.24 226.654C451.735 226.693 450.354 226.377 448.585 225.225C448.041 224.868 447.528 224.473 447.061 224.045C446.906 223.903 446.709 223.818 446.5 223.803C444.444 223.661 442.834 221.921 442.834 219.839C442.834 219.273 442.959 218.709 443.211 218.162C443.403 217.743 443.267 217.246 442.892 216.984C442.506 216.715 441.86 216.149 441.86 215.358C441.86 214.665 442.385 213.986 443.299 213.498C443.605 213.334 443.797 213.012 443.797 212.662C443.797 212.312 443.605 211.99 443.299 211.825C442.385 211.337 441.86 210.659 441.86 209.966C441.86 209.652 441.981 209.325 442.222 208.995C442.439 208.7 442.467 208.306 442.295 207.982C442.006 207.439 441.86 206.88 441.86 206.319C441.86 205.388 442.237 204.487 442.921 203.788C443.245 203.457 443.284 202.941 443.015 202.566C442.552 201.921 442.308 201.171 442.308 200.394C442.308 198.24 444.174 196.489 446.467 196.489C447.453 196.489 448.386 196.823 449.166 197.453C449.556 197.769 450.121 197.719 450.449 197.337C451.878 195.685 454.563 195.419 456.324 196.825C456.661 197.091 457.134 197.095 457.47 196.828C459.344 195.365 462.413 195.76 463.738 197.549C463.926 197.803 464.231 197.947 464.541 197.925C464.854 197.905 465.134 197.728 465.29 197.453C465.851 196.469 466.762 195.882 467.729 195.882C468.683 195.882 469.587 196.457 470.148 197.419C470.305 197.695 470.592 197.867 470.906 197.883C471.256 197.932 471.518 197.751 471.704 197.494C472.81 195.957 475.078 195.404 476.867 196.398C477.144 196.552 477.483 196.556 477.76 196.398C479.709 195.32 482.162 196.075 483.138 197.878C483.28 198.144 483.543 198.324 483.834 198.364C485.733 198.613 487.161 200.14 487.161 201.917C487.161 202.932 486.694 203.691 486.305 204.147C485.969 204.537 486.006 205.124 486.381 205.469C486.808 205.859 487.31 206.509 487.31 207.391C487.31 207.895 487.135 208.386 486.798 208.85C486.581 209.147 486.552 209.548 486.731 209.871C487.015 210.4 487.161 210.944 487.161 211.489C487.161 212.501 486.694 213.262 486.305 213.721C485.969 214.109 486.006 214.698 486.381 215.041C486.979 215.592 487.31 216.273 487.31 216.962C487.31 218.041 486.534 219.044 485.284 219.58C485 219.702 484.792 219.957 484.73 220.262C484.672 220.569 484.76 220.885 484.974 221.106C485.612 221.778 485.962 222.626 485.962 223.493C485.962 224.693 485.319 225.812 484.242 226.486C483.921 226.684 483.763 227.13 483.821 227.507L483.863 227.899C483.863 229.888 482.129 231.504 480.001 231.504C479.722 231.504 479.444 231.471 479.181 231.417C478.678 231.308 478.201 231.635 478.086 232.134C477.716 233.794 476.13 235.001 474.317 235.001C473.377 235.001 472.495 234.681 471.77 234.075C471.38 233.75 470.797 233.798 470.465 234.192C469.456 235.404 467.911 235.972 466.146 235.379C465.751 235.246 465.24 235.525 465.005 235.883C464.796 236.203 464.747 236.527 464.96 236.845C465.128 237.371 464.869 239.876 464.758 240.945C464.682 241.692 464.623 242.304 464.623 242.583C464.623 243.103 465.041 243.53 465.555 243.53C466.07 243.53 466.488 243.103 466.488 242.583C466.488 242.339 466.546 241.799 466.615 241.139C466.786 239.496 466.885 238.318 466.878 237.471C468.514 237.651 470.104 237.098 471.293 236.039C472.203 236.593 473.255 236.893 474.32 236.893C476.693 236.893 478.81 235.458 479.651 233.383C482.894 233.583 485.736 231.043 485.736 227.896L485.732 227.74C487.059 226.695 487.834 225.15 487.834 223.49C487.834 222.521 487.561 221.582 487.055 220.748C488.389 219.834 489.181 218.453 489.181 216.958C489.181 215.996 488.844 215.065 488.225 214.268C488.756 213.418 489.033 212.469 489.033 211.485Z" fill="white"/>
<path d="M532 214H533" stroke="#FF6347" stroke-width="3" stroke-linecap="round"/>
<path d="M122.819 73.9231C122.412 73.3365 121.81 73 121.169 73H103.723V73.9615C103.723 81.9143 98.2335 88.3843 91.4861 88.3843C91.035 88.3843 90.6703 87.9545 90.6703 87.4228C90.6703 86.8911 91.035 86.4613 91.4861 86.4613C97.3336 86.4613 102.091 80.8537 102.091 73.9615V73H87.6348C84.9925 73 81.204 75.0625 78.697 79.6691C75.6958 85.1834 73.6955 95.7948 81.1436 115.051L81.1346 115.337C81.1207 115.833 81.2741 116.301 81.5653 116.656C81.8558 117.01 82.2465 117.205 82.6642 117.205L82.7539 117.201C84.7779 117.064 90.6214 116.206 93.9326 111.154V122.038C93.9326 122.57 94.2973 123 94.7484 123C95.1996 123 95.5642 122.57 95.5642 122.038V107.636C95.6205 107.637 95.6817 107.637 95.7445 107.637C95.955 107.637 96.1687 107.621 96.38 107.615V122.038C96.38 122.569 96.7447 122.999 97.1958 122.999C97.6469 122.999 98.0116 122.569 98.0116 122.038V107.502C104.955 106.754 112.083 102.458 113.582 92.2583C118.867 88.1305 122.125 82.6652 123.26 75.9999C123.385 75.2634 123.224 74.5067 122.819 73.9231ZM95.7453 105.714C95.7192 105.714 95.7004 105.713 95.6752 105.713C96.0333 104.047 97.3051 102.807 98.8282 102.807C99.2793 102.807 99.6439 102.377 99.6439 101.846C99.6439 101.314 99.2793 100.884 98.8282 100.884C96.7667 100.884 95.0021 102.397 94.2818 104.527C93.5615 104.055 92.5923 103.769 91.4861 103.769C91.035 103.769 90.6703 104.198 90.6703 104.73C90.6703 105.262 91.035 105.692 91.4861 105.692C92.0204 105.692 92.4659 105.777 92.8313 105.896C90.136 106.487 88.223 108.297 88.223 110.499C88.223 111.031 88.5876 111.461 89.0387 111.461C89.4899 111.461 89.8545 111.031 89.8545 110.499C89.8545 109.291 91.4331 107.962 93.798 107.674C91.4706 114.058 84.9761 115.106 82.7686 115.273L82.8274 113.196C82.8469 113.069 82.869 112.94 82.8926 112.808C82.9049 112.743 82.9187 112.674 82.9318 112.607C82.944 112.543 82.9563 112.479 82.9701 112.415C82.9905 112.32 83.0125 112.223 83.0354 112.126C83.0435 112.09 83.0525 112.053 83.0607 112.017C83.0892 111.898 83.1202 111.778 83.1537 111.656C83.1569 111.644 83.1602 111.632 83.1635 111.62C84.2403 107.698 87.6201 102.062 97.8696 98.9495L97.8688 98.9457C97.9063 98.9341 97.9463 98.9235 97.9838 98.912L97.9846 98.9139C98.4668 98.7697 98.9652 98.6312 99.4743 98.4985L99.8919 98.3918C100.46 98.2505 101.041 98.112 101.646 97.9851C101.913 97.9332 106.323 97.0236 111.165 93.9602C111.225 93.9227 111.284 93.8852 111.343 93.8477C111.453 93.7765 111.563 93.7111 111.673 93.6381C109.12 104.803 98.9505 105.714 95.7453 105.714Z" fill="white"/>
<path d="M243.636 0C230.053 0 219 7.9996 219 17.8328C219 18.9096 220.211 19.7856 221.698 19.7856C223.186 19.7856 224.397 18.91 224.397 17.8328C224.397 10.1536 233.028 3.906 243.636 3.906C254.245 3.906 262.876 10.1536 262.876 17.8328C262.876 22.9284 259.917 25.0192 256.488 27.4404C252.764 30.0716 248.542 33.054 248.542 39.6856C248.542 43.2192 244.57 46.094 239.689 46.094C234.808 46.094 230.837 43.2192 230.837 39.6856C230.837 38.6088 229.627 37.7324 228.139 37.7324C226.651 37.7324 225.441 38.6084 225.441 39.6856C225.441 45.3728 231.832 50 239.689 50C247.546 50 253.939 45.3728 253.939 39.6856C253.939 34.6988 256.868 32.6304 260.26 30.2344C264.016 27.5808 268.272 24.574 268.272 17.8328C268.272 7.9996 257.221 0 243.636 0Z" fill="white"/>
<path d="M244.728 9.5C238.183 9.5 232.845 13.354 232.845 18.0908V20.5396C232.845 20.5456 232.621 20.5476 232.501 20.5564C231.612 20.6244 230.975 21.2008 231.069 21.8448C231.163 22.4888 231.974 22.96 232.853 22.8872C234.097 22.792 235.326 22.988 236.406 23.4512C239.149 24.6292 240.056 27.2032 238.429 29.1884C236.8 31.1736 233.245 31.8296 230.504 30.652C229.735 30.322 228.742 30.506 228.285 31.0616C227.829 31.618 228.082 32.3368 228.851 32.6676C230.292 33.2864 231.875 33.5804 233.44 33.5804C236.522 33.5804 239.53 32.4384 241.214 30.3844C242.443 28.884 242.792 27.1268 242.197 25.4372C241.601 23.7468 240.115 22.326 238.043 21.4356C237.422 21.1692 236.621 20.9608 236.082 20.81V18.0908C236.082 14.6464 239.969 11.844 244.728 11.844C249.487 11.844 253.367 14.6464 253.367 18.0908C253.367 18.7384 254.095 19.2628 254.99 19.2628C255.884 19.2628 256.611 18.7384 256.611 18.0908C256.611 13.354 251.271 9.5 244.728 9.5Z" fill="white"/>
</svg>
