<svg width="63" height="22" viewBox="0 0 63 22" fill="none" xmlns="http://www.w3.org/2000/svg">
<path d="M31.2722 21.875C46.3644 21.875 62.4062 18.0422 62.4062 10.9375C62.4062 3.83281 46.3644 0 31.2722 0C16.18 0 0.138184 3.83281 0.138184 10.9375C0.138184 18.0422 16.18 21.875 31.2722 21.875ZM31.2722 3.125C48.6325 3.125 59.2928 7.675 59.2928 10.9375C59.2928 14.2 48.6325 18.75 31.2722 18.75C13.9119 18.75 3.25158 14.2 3.25158 10.9375C3.25158 7.675 13.9119 3.125 31.2722 3.125Z" fill="#FF6347"/>
<path d="M15.6415 14.6938C19.8291 15.2953 25.3803 15.625 31.2724 15.625C37.1645 15.625 42.7172 15.2953 46.9032 14.6938C52.459 13.8969 54.6229 12.8438 54.6229 10.9375C54.6229 9.03125 52.4575 7.97813 46.9032 7.18125C42.7172 6.57969 37.1645 6.25 31.2724 6.25C25.3803 6.25 19.8291 6.57969 15.6415 7.18125C10.0872 7.97813 7.92188 9.03125 7.92188 10.9375C7.92188 12.8438 10.0872 13.8969 15.6415 14.6938ZM31.2724 9.375C40.7807 9.375 47.0651 10.1984 49.9808 10.9375C47.0666 11.6766 40.7822 12.5 31.2724 12.5C21.764 12.5 15.4781 11.6766 12.564 10.9375C15.4797 10.1984 21.764 9.375 31.2724 9.375Z" fill="#FF6347"/>
</svg>
