<svg width="279" height="70" viewBox="0 0 279 70" fill="none" xmlns="http://www.w3.org/2000/svg">
<path d="M250.314 26.0383L260.142 16.125C258.607 15.5668 256.953 15.1904 255.232 15.1904H232.512C225.861 15.1904 220.192 19.6711 218.551 26.0383H250.314ZM243.953 16.7233C244.994 16.7233 245.837 17.5678 245.837 18.6099C245.837 19.652 244.994 20.4965 243.953 20.4965C242.913 20.4965 242.07 19.652 242.07 18.6099C242.07 17.5678 242.913 16.7233 243.953 16.7233ZM229.477 18.6099C230.517 18.6099 231.36 19.4544 231.36 20.4965C231.36 21.5386 230.517 22.383 229.477 22.383C228.436 22.383 227.593 21.5386 227.593 20.4965C227.593 19.4544 228.436 18.6099 229.477 18.6099Z" fill="white"/>
<path d="M263.627 18.0402L255.641 26.0383H269.119C268.256 22.7368 266.276 19.9508 263.627 18.0402Z" fill="white"/>
<path d="M225.533 50.7781L230.927 45.3759H219.43C220.923 47.7004 223.038 49.5737 225.533 50.7781Z" fill="white"/>
<path d="M236.256 45.3759L229.576 52.035C230.397 52.1728 231.238 52.2147 232.096 52.2147H255.648C260.909 52.2147 265.578 49.553 268.249 45.3759H236.256Z" fill="white"/>
<path d="M274.722 33.4113V30.2182C274.722 28.8776 274.115 27.6857 273.117 26.9205C272.4 22.154 269.889 18.0467 266.299 15.2689L278.34 3.22046C279.075 2.48352 279.08 1.28931 278.345 0.552357C277.609 -0.184119 276.419 -0.184119 275.683 0.552357L263.016 13.2059C260.65 12.0801 258.01 11.4175 255.231 11.4175H232.511C223.382 11.4175 215.683 18.1479 214.444 27.1099C213.599 27.8744 213.026 29.0012 213.026 30.2185V33.4924C210.671 34.3579 209.062 36.6098 209.062 39.2449C209.062 42.5912 211.773 45.3183 215.102 45.3737C216.754 48.8363 219.44 51.6878 222.735 53.5707L209.551 66.7794C208.815 67.5163 208.817 68.7105 209.553 69.4475C209.921 69.8158 210.404 70 210.886 70C211.369 70 211.851 69.8158 212.219 69.4475L226.458 55.1577C228.242 55.7145 230.136 55.9881 232.096 55.9881H255.648C263.055 55.9881 269.524 51.7402 272.552 45.376H272.917C276.293 45.376 279 42.6256 279 39.2446C279 36.5216 277.312 34.2088 274.722 33.4113ZM272.916 41.6026H254.129L267.585 36.8861H272.917C274.215 36.8861 275.271 37.9441 275.271 39.2444C275.271 40.5447 274.215 41.6026 272.916 41.6026ZM255.648 52.2147H232.096C231.238 52.2147 230.396 52.1727 229.576 52.035L236.255 45.3758H268.248C265.577 49.5529 260.909 52.2147 255.648 52.2147ZM212.869 39.2444C212.869 37.9441 213.925 36.8861 215.224 36.8861H220.313L233.5 41.6026H215.224C213.925 41.6026 212.869 40.5447 212.869 39.2444ZM232.511 15.1904H255.231C256.952 15.1904 258.605 15.5668 260.141 16.125L250.313 26.0383H218.55C220.19 19.671 225.86 15.1904 232.511 15.1904ZM216.794 30.2182C216.794 29.9513 217.109 29.8114 217.343 29.8114H246.468L243.172 33.113H220.64H216.794V30.2182ZM243.723 41.2524L241.255 40.3695L244.733 36.8861H256.18L243.723 41.2524ZM231.515 36.8861H239.404L237.328 38.9649L231.515 36.8861ZM267.265 33.113H248.5L251.797 29.8114H270.562C270.796 29.8114 270.954 29.9513 270.954 30.2182V33.113H267.265ZM255.642 26.0383L263.628 18.0401C266.277 19.951 268.257 22.7367 269.12 26.0383H255.642ZM230.927 45.3758L225.533 50.778C223.037 49.5737 220.923 47.7003 219.429 45.3758H230.927Z" fill="white"/>
<path d="M229.476 22.383C230.516 22.383 231.359 21.5384 231.359 20.4965C231.359 19.4545 230.516 18.6099 229.476 18.6099C228.435 18.6099 227.592 19.4545 227.592 20.4965C227.592 21.5384 228.435 22.383 229.476 22.383Z" fill="white"/>
<path d="M243.952 20.4964C244.993 20.4964 245.836 19.6518 245.836 18.6099C245.836 17.5679 244.993 16.7233 243.952 16.7233C242.912 16.7233 242.068 17.5679 242.068 18.6099C242.068 19.6518 242.912 20.4964 243.952 20.4964Z" fill="white"/>
<path d="M20.73 35.422C23.7256 35.422 26.053 33.915 26.053 31.9793C26.053 30.5 23.1034 27.6656 22.1817 26.8223C21.8821 26.5319 21.3521 26.3522 20.7761 26.3522C20.1769 26.3522 19.6469 26.5181 19.3243 26.7946C18.3335 27.638 15.1074 30.5 15.1074 31.9932C15.1074 33.8597 17.6883 35.422 20.73 35.422ZM20.6608 29.3386C21.7439 30.4723 22.5965 31.5784 22.5734 31.9932C22.5734 32.6568 21.8821 33.3481 20.7069 33.3481C19.5778 33.3481 18.5409 32.6983 18.5409 31.9932C18.5409 31.6199 19.4395 30.5276 20.6608 29.3386Z" fill="white"/>
<path d="M16.4684 7.63185C15.5237 7.54889 14.648 7.94984 14.5098 8.51671C13.8415 11.3925 12.8506 13.3005 11.1224 15.1255C10.6615 15.6232 10.9381 16.2454 11.7676 16.5357C12.0441 16.6325 12.3207 16.674 12.6202 16.674C13.2193 16.674 13.7954 16.4804 14.1411 16.1624C16.5606 13.6047 17.4132 11.116 17.9432 8.80705C18.0815 8.24019 17.4132 7.7148 16.4684 7.63185Z" fill="white"/>
<path d="M99.6539 36.8323H93.0635L93.2709 34.4404V34.3851C93.2709 30.7627 90.9666 27.3615 87.2336 25.495C83.5467 23.6977 78.7076 23.7668 74.8594 25.6609C74.675 25.7439 74.5137 25.8269 74.3524 25.9098C72.1633 23.435 68.8451 21.9556 64.9738 21.762H64.8356C61.1486 21.762 57.623 23.2276 55.3417 25.6056C55.2957 25.578 55.2496 25.5503 55.2035 25.5227L55.0652 25.4536C51.0096 23.6562 46.2858 23.7391 42.4375 25.6609C41.9536 25.896 41.4928 26.1725 41.0549 26.4767V25.1079C41.0549 21.5546 38.6354 18.2226 36.308 15.0011C34.2802 12.1945 32.3446 9.5399 32.3446 7.10653V6.6641H33.7733C34.7181 6.6641 35.5015 6.19402 35.5015 5.62716V1.03695C35.5015 0.470082 34.7181 0 33.7733 0H7.36573C6.42096 0 5.63749 0.470082 5.63749 1.03695V5.62716C5.63749 6.19402 6.42096 6.6641 7.36573 6.6641H9.07093V7.07888C8.93267 9.36016 6.99704 11.8903 4.92315 14.5587C2.29622 17.9599 -0.445924 21.4855 0.0610269 25.1494V50.285C0.0610269 51.9164 1.0058 53.5894 2.78013 55.1102C4.23185 56.3407 7.66529 58.304 10.7992 58.304H30.6164C34.0498 58.304 36.7919 56.6034 38.2898 55.4006C38.5202 55.7186 38.7737 56.0227 39.0271 56.3131C39.0502 56.3407 39.0732 56.3684 39.0963 56.3822C39.1884 56.4651 39.2806 56.5758 39.3958 56.6864C39.995 57.2947 40.9858 58.304 42.9445 58.304H54.0513C56.01 58.304 57.0009 57.2947 57.6 56.6864C57.7152 56.5758 57.8074 56.4651 57.8995 56.3822L57.9226 56.3684C59.6278 54.7507 61.2639 51.5846 61.9782 50.119H67.5086C68.292 51.5569 70.1816 54.7507 72.1403 56.396C72.2324 56.479 72.3246 56.5758 72.4168 56.6864C73.0159 57.2947 74.0068 58.304 75.9654 58.304C76.0115 58.304 76.0807 58.304 76.1267 58.304C79.3528 58.1243 83.708 58.1243 87.2336 58.304C87.2797 58.304 87.3258 58.304 87.3718 58.304C89.3075 58.304 90.5979 57.0044 91.0588 56.2301C93.8239 53.0916 94.9531 46.9253 95.2757 44.5887H99.6769C102.719 44.5887 105 43.1922 105 41.3534V39.8878C104.977 38.1734 102.65 36.8323 99.6539 36.8323ZM76.9793 27.3064L77.0485 27.265C79.6293 25.9653 82.6249 25.8962 85.0445 27.0852C87.9479 28.537 89.8144 31.3851 89.8144 34.3439L89.584 36.8325H72.6242L72.555 34.3715C72.5781 31.2743 74.3063 28.4955 76.9793 27.3064ZM64.7664 23.8359C67.739 24.0018 70.3198 25.3844 71.9098 27.6657C70.1355 29.4216 69.0986 31.7997 69.0986 34.3713L69.1677 36.8323H60.6878L60.8491 34.4266V34.3851C60.8491 31.855 59.6739 29.311 57.6922 27.403C59.3052 25.2738 62.0704 23.8638 64.7664 23.8359ZM44.6497 27.2788C47.2305 25.993 50.2492 25.9239 52.9453 27.0991C55.6644 28.6199 57.4156 31.4681 57.4156 34.3577L57.2313 36.8325H40.3176L40.1563 34.3577C40.1793 31.4266 41.9536 28.5923 44.6497 27.2788ZM9.09398 2.07389H32.045V4.59021H9.09398V2.07389ZM8.08007 15.4438C10.2922 12.568 12.3892 9.85811 12.5505 7.14822C12.5505 7.1344 12.5505 7.12057 12.5505 7.12057V6.69197H28.9112V7.12057C28.9112 9.98254 30.962 12.8307 33.1511 15.8447C34.5567 17.7942 35.9854 19.7713 36.838 21.7761H4.00142C4.80793 19.6607 6.46705 17.5315 8.08007 15.4438ZM3.54056 23.85H37.5063C37.5754 24.2786 37.6215 24.7072 37.6215 25.1219V30.5141C37.0224 31.7307 36.6998 33.0442 36.6998 34.3853L36.8611 36.8463H31.5381C28.7729 36.8463 26.5147 38.2151 26.5147 39.9019V40.1507H3.5636V25.1219C3.5636 25.0943 3.5636 25.0666 3.5636 25.039C3.51751 24.6378 3.49447 24.2507 3.54056 23.85ZM36.4002 53.2714C36.1467 53.5341 35.9163 53.7967 35.755 53.9903C34.0728 55.4005 32.1833 56.2439 30.6394 56.2439H10.8222C9.57788 56.2439 6.99704 55.0964 5.63749 53.935C4.27794 52.7598 3.54056 51.5016 3.54056 50.2988V42.2244H26.676C27.252 43.6208 29.1646 44.6163 31.5381 44.6163H34.1881C34.5337 46.2201 35.3633 49.7734 36.815 52.8427C36.6767 52.9674 36.5385 53.1193 36.4002 53.2714ZM87.9249 55.3314C87.8788 55.3867 87.8327 55.442 87.8097 55.4973C87.6484 55.7877 87.3258 56.0918 87.1184 56.2301C83.5697 56.0642 79.3067 56.0642 76.0576 56.2301C75.8733 56.1195 75.5737 55.8153 75.4124 55.6494C75.2741 55.525 75.1589 55.3867 75.0207 55.2485C74.9976 55.2346 74.9976 55.2208 74.9746 55.207C72.7624 53.3681 70.4581 48.8194 70.4351 48.7779C70.2046 48.3355 69.5364 48.0452 68.776 48.0452H60.6647C59.8813 48.0452 59.19 48.3631 59.0056 48.8194C58.4526 50.0914 56.6322 53.7138 55.0191 55.2623C54.8809 55.3867 54.7426 55.525 54.6274 55.6494C54.4661 55.8292 54.1435 56.1333 53.9592 56.2439H43.0827C42.8984 56.1333 42.5758 55.8292 42.4145 55.6494C42.2993 55.5388 42.1841 55.4144 42.0688 55.2899C39.6723 52.6077 38.2437 46.9667 37.7137 44.6025H91.8422C91.4275 46.9531 90.3675 52.6494 87.9249 55.3314ZM101.52 41.3674C101.52 42.0726 100.783 42.5288 99.6539 42.5288H31.5381C30.6394 42.5288 29.9711 42.0311 29.9711 41.3674V39.9019C29.9711 39.3627 30.6855 38.9202 31.5381 38.9202H99.6539C100.737 38.9202 101.52 39.335 101.52 39.9019V41.3674Z" fill="white"/>
<path d="M10.4997 19.7847C11.4542 19.7847 12.228 19.3204 12.228 18.7478C12.228 18.1751 11.4542 17.7108 10.4997 17.7108C9.54525 17.7108 8.77148 18.1751 8.77148 18.7478C8.77148 19.3204 9.54525 19.7847 10.4997 19.7847Z" fill="white"/>
</svg>
