<svg width="170" height="336" viewBox="0 0 170 336" fill="none" xmlns="http://www.w3.org/2000/svg">
<path d="M51.3306 297.346C50.1375 297.346 48.972 297.466 47.8426 297.686C39.3212 299.35 32.8801 306.992 32.8801 316.172C32.8801 326.569 41.1407 335 51.3306 335H118.67C128.859 335 137.12 326.569 137.12 316.172C137.12 306.992 130.678 299.35 122.157 297.686C121.027 297.465 119.863 297.346 118.67 297.346H51.3306Z" fill="#8DA399"/>
<path d="M2.74599 214.628C2.74599 214.636 2.74433 214.646 2.74433 214.655L2.86841 214.887C2.91788 214.98 2.9682 215.074 3.01935 215.169L47.8423 298.543C48.9726 298.322 50.1372 298.203 51.3304 298.203H118.67C119.863 298.203 121.027 298.323 122.157 298.543L167.052 215.047C168.93 211.53 170 207.496 170 203.206L170 24.7829C170 11.0964 159.128 0.00137169 145.715 0.00137169H24.2863C10.8725 0.00137169 5.67734e-06 11.0964 5.67734e-06 24.7829L5.67734e-06 203.206C-0.000832794 207.329 1.00113 211.207 2.74599 214.628ZM25.6723 86.1914C25.6723 72.5049 36.5448 61.4107 49.9586 61.4107L120.041 61.4107C133.454 61.4107 144.326 72.5049 144.326 86.1914V139.466C144.326 153.153 133.454 164.248 120.041 164.248L49.9586 164.248C36.5448 164.248 25.6723 153.153 25.6723 139.466V86.1914Z" fill="#1B4D3E"/>
<rect x="16" y="28" width="142" height="152" fill="#1B4D3E"/>
<path d="M50.2864 212.836H120.368C133.781 212.836 144.654 201.741 144.654 188.054V134.78C144.654 121.093 133.781 109.999 120.368 109.999L50.2864 109.999C36.8726 109.999 26.0001 121.093 26.0001 134.78L26.0001 188.054C26.0001 201.741 36.8726 212.836 50.2864 212.836ZM58.9713 159.125C58.9713 155.338 61.9797 152.268 65.6916 152.268H76.3612V141.381C76.3612 137.593 79.3688 134.522 83.0815 134.522H86.9637H87.5749C91.2868 134.522 94.2969 137.593 94.2969 141.381V152.268H104.966C108.676 152.268 111.685 155.338 111.685 159.125V163.713C111.685 167.498 108.676 170.568 104.966 170.568H94.2969V181.454C94.2969 185.243 91.2868 188.313 87.5749 188.313H86.9637H83.0815C79.3688 188.313 76.3612 185.243 76.3612 181.454V170.568H65.6916C61.9797 170.568 58.9713 167.498 58.9713 163.713V159.125V159.125Z" fill="white"/>
</svg>
