<svg width="518" height="270" viewBox="0 0 518 270" fill="none" xmlns="http://www.w3.org/2000/svg">
<path d="M153.247 0.923059C152.84 0.336532 152.239 0 151.597 0H134.151V0.96152C134.151 8.91425 128.662 15.3843 121.914 15.3843C121.463 15.3843 121.099 14.9545 121.099 14.4228C121.099 13.8911 121.463 13.4613 121.914 13.4613C127.762 13.4613 132.52 7.8537 132.52 0.96152V0H118.063C115.421 0 111.632 2.06246 109.125 6.6691C106.124 12.1834 104.124 22.7948 111.572 42.0511L111.563 42.3367C111.549 42.8328 111.702 43.3011 111.994 43.6559C112.284 44.0097 112.675 44.2049 113.092 44.2049L113.182 44.2011C115.206 44.0636 121.05 43.2059 124.361 38.1541V49.0385C124.361 49.5702 124.726 50 125.177 50C125.628 50 125.992 49.5702 125.992 49.0385V34.6359C126.049 34.6368 126.11 34.6368 126.173 34.6368C126.383 34.6368 126.597 34.6214 126.808 34.6147V49.0375C126.808 49.5692 127.173 49.999 127.624 49.999C128.075 49.999 128.44 49.5692 128.44 49.0375V34.5022C135.383 33.7542 142.511 29.4581 144.01 19.2583C149.295 15.1305 152.554 9.6652 153.688 2.99994C153.813 2.26342 153.652 1.5067 153.247 0.923059ZM126.174 32.7138C126.147 32.7138 126.129 32.7128 126.103 32.7128C126.462 31.0475 127.733 29.8071 129.256 29.8071C129.708 29.8071 130.072 29.3773 130.072 28.8456C130.072 28.3139 129.708 27.8841 129.256 27.8841C127.195 27.8841 125.43 29.3965 124.71 31.5273C123.99 31.0552 123.021 30.7686 121.914 30.7686C121.463 30.7686 121.099 31.1984 121.099 31.7302C121.099 32.2619 121.463 32.6917 121.914 32.6917C122.449 32.6917 122.894 32.7773 123.26 32.8965C120.564 33.4869 118.651 35.2974 118.651 37.4993C118.651 38.031 119.016 38.4608 119.467 38.4608C119.918 38.4608 120.283 38.031 120.283 37.4993C120.283 36.2906 121.861 34.9618 124.226 34.6743C121.899 41.0579 115.404 42.1059 113.197 42.2732L113.256 40.1963C113.275 40.0694 113.297 39.9396 113.321 39.8079C113.333 39.7425 113.347 39.6742 113.36 39.6069C113.372 39.5435 113.384 39.479 113.398 39.4146C113.419 39.3204 113.441 39.2233 113.464 39.1262C113.472 39.0896 113.481 39.0531 113.489 39.0166C113.517 38.8983 113.548 38.7781 113.582 38.656C113.585 38.6444 113.588 38.6319 113.592 38.6204C114.669 34.6984 118.048 29.0619 128.298 25.9495L128.297 25.9457C128.335 25.9341 128.375 25.9235 128.412 25.912L128.413 25.9139C128.895 25.7697 129.393 25.6312 129.902 25.4985L130.32 25.3918C130.888 25.2505 131.469 25.112 132.074 24.9851C132.341 24.9332 136.751 24.0236 141.593 20.9602C141.653 20.9227 141.712 20.8852 141.771 20.8477C141.881 20.7765 141.991 20.7111 142.101 20.6381C139.548 31.8032 129.379 32.7138 126.174 32.7138Z" fill="white"/>
<path d="M375.456 25C361.872 25 350.819 32.9996 350.819 42.8328C350.819 43.9096 352.03 44.7856 353.518 44.7856C355.005 44.7856 356.216 43.91 356.216 42.8328C356.216 35.1536 364.847 28.906 375.456 28.906C386.065 28.906 394.695 35.1536 394.695 42.8328C394.695 47.9284 391.736 50.0192 388.307 52.4404C384.583 55.0716 380.362 58.054 380.362 64.6856C380.362 68.2192 376.39 71.094 371.509 71.094C366.627 71.094 362.657 68.2192 362.657 64.6856C362.657 63.6088 361.446 62.7324 359.958 62.7324C358.471 62.7324 357.26 63.6084 357.26 64.6856C357.26 70.3728 363.652 75 371.509 75C379.365 75 385.758 70.3728 385.758 64.6856C385.758 59.6988 388.687 57.6304 392.079 55.2344C395.835 52.5808 400.092 49.574 400.092 42.8328C400.092 32.9996 389.04 25 375.456 25Z" fill="white"/>
<path d="M376.547 34.5C370.003 34.5 364.664 38.354 364.664 43.0908V45.5396C364.664 45.5456 364.441 45.5476 364.321 45.5564C363.432 45.6244 362.794 46.2008 362.888 46.8448C362.982 47.4888 363.793 47.96 364.672 47.8872C365.916 47.792 367.146 47.988 368.225 48.4512C370.968 49.6292 371.875 52.2032 370.248 54.1884C368.619 56.1736 365.064 56.8296 362.323 55.652C361.554 55.322 360.561 55.506 360.104 56.0616C359.648 56.618 359.902 57.3368 360.67 57.6676C362.111 58.2864 363.695 58.5804 365.259 58.5804C368.341 58.5804 371.349 57.4384 373.033 55.3844C374.263 53.884 374.612 52.1268 374.016 50.4372C373.42 48.7468 371.934 47.326 369.863 46.4356C369.242 46.1692 368.44 45.9608 367.901 45.81V43.0908C367.901 39.6464 371.789 36.844 376.547 36.844C381.306 36.844 385.186 39.6464 385.186 43.0908C385.186 43.7384 385.915 44.2628 386.81 44.2628C387.703 44.2628 388.431 43.7384 388.431 43.0908C388.431 38.354 383.091 34.5 376.547 34.5Z" fill="white"/>
<path d="M281.357 114.285C283.043 110.466 282.34 105.833 279.226 102.708C278.781 102.261 278.135 102.149 277.582 102.357C277.61 99.6582 276.605 96.9504 274.556 94.8957C273.947 94.2848 272.964 94.2848 272.355 94.8957L261.645 105.646C260.971 104.533 260.175 103.475 259.223 102.513C256.064 99.3207 251.867 97.5629 247.401 97.5629C247.4 97.5629 247.4 97.5629 247.4 97.5629C242.933 97.5629 238.733 99.3207 235.575 102.513L234.537 103.563L233.498 102.513C230.34 99.3207 226.141 97.5629 221.674 97.5629C217.207 97.5629 213.01 99.3207 209.852 102.513C208.899 103.475 208.104 104.533 207.43 105.646L196.72 94.8957C196.111 94.2848 195.127 94.2848 194.518 94.8957C192.471 96.9504 191.466 99.6582 191.492 102.357C190.94 102.149 190.294 102.261 189.848 102.708C186.733 105.833 186.03 110.466 187.716 114.285C184.268 118.368 184.454 124.505 188.292 128.355C193.603 133.688 200.669 136.625 208.185 136.625H219.98L233.433 150.225C233.725 150.522 234.122 150.688 234.537 150.688C234.952 150.688 235.348 150.522 235.642 150.225L249.095 136.625H260.89C268.404 136.625 275.47 133.688 280.781 128.355C284.619 124.505 284.805 118.366 281.357 114.285ZM208.185 133.5C201.502 133.5 195.219 130.888 190.494 126.146C188.046 123.688 187.719 119.894 189.512 117.08L196.077 123.668L198.278 121.458L193.608 116.771L192.051 115.208C189.602 112.75 189.275 108.957 191.069 106.143L199.19 114.293L201.391 112.083L198.278 108.958L196.721 107.396C194.272 104.938 193.946 101.144 195.739 98.3301L206.004 108.632C203.838 114.614 205.11 121.593 209.853 126.386L216.888 133.5H208.185ZM234.537 146.908L212.062 124.185C206.751 118.816 206.751 110.083 212.062 104.714C214.629 102.119 218.043 100.688 221.675 100.688C225.305 100.688 228.721 102.118 231.289 104.714L233.433 106.882C234.017 107.472 235.06 107.472 235.643 106.882L237.787 104.714C240.354 102.118 243.768 100.688 247.4 100.688C251.031 100.688 254.444 102.119 257.012 104.714C262.324 110.083 262.324 118.816 257.012 124.185L234.537 146.908ZM278.58 126.146C273.856 130.888 267.573 133.5 260.89 133.5H252.186L259.223 126.386C263.966 121.593 265.238 114.614 263.072 108.632L273.337 98.3301C275.131 101.144 274.804 104.938 272.355 107.396L270.798 108.958L267.685 112.083L269.886 114.293L278.007 106.143C279.801 108.957 279.474 112.75 277.025 115.208L275.468 116.771L270.798 121.458L272.999 123.668L279.564 117.08C281.356 119.894 281.029 123.688 278.58 126.146Z" fill="white"/>
<path d="M234.536 161.625C223.174 161.625 209.629 162.439 209.629 166.312C209.629 170.186 223.174 171 234.536 171C245.898 171 259.443 170.186 259.443 166.312C259.443 162.439 245.898 161.625 234.536 161.625ZM234.536 167.875C224.372 167.875 217.643 167.058 214.473 166.312C217.643 165.567 224.371 164.75 234.536 164.75C244.7 164.75 251.429 165.567 254.599 166.312C251.429 167.058 244.701 167.875 234.536 167.875Z" fill="white"/>
<path d="M234.536 92.875C249.629 92.875 265.67 89.0422 265.67 81.9375C265.67 74.8328 249.629 71 234.536 71C219.444 71 203.402 74.8328 203.402 81.9375C203.402 89.0422 219.444 92.875 234.536 92.875ZM234.536 74.125C251.897 74.125 262.557 78.675 262.557 81.9375C262.557 85.2 251.897 89.75 234.536 89.75C217.176 89.75 206.516 85.2 206.516 81.9375C206.516 78.675 217.176 74.125 234.536 74.125Z" fill="white"/>
<path d="M218.906 85.6938C223.093 86.2953 228.644 86.625 234.537 86.625C240.429 86.625 245.981 86.2953 250.167 85.6938C255.723 84.8969 257.887 83.8438 257.887 81.9375C257.887 80.0312 255.722 78.9781 250.167 78.1813C245.981 77.5797 240.429 77.25 234.537 77.25C228.644 77.25 223.093 77.5797 218.906 78.1813C213.351 78.9781 211.186 80.0312 211.186 81.9375C211.186 83.8438 213.351 84.8969 218.906 85.6938ZM234.537 80.375C244.045 80.375 250.329 81.1984 253.245 81.9375C250.331 82.6766 244.046 83.5 234.537 83.5C225.028 83.5 218.742 82.6766 215.828 81.9375C218.744 81.1984 225.028 80.375 234.537 80.375Z" fill="white"/>
<path d="M259.443 139.75H256.33V142.875H259.443V139.75Z" fill="white"/>
<path d="M265.671 139.75H262.557V142.875H265.671V139.75Z" fill="white"/>
<path d="M253.217 139.75H250.104V142.875H253.217V139.75Z" fill="white"/>
<path d="M15.1075 101.022C14.7286 102.598 13.183 103.781 11.3385 103.781C10.8467 103.781 10.448 104.144 10.448 104.591C10.448 105.039 10.8467 105.401 11.3385 105.401C14.1611 105.401 16.5058 103.505 16.9147 101.04C18.6429 100.87 20.2382 100.169 21.4732 99.0228C21.8174 98.7033 21.8116 98.1904 21.4603 97.8775C21.1091 97.5646 20.5453 97.5696 20.2011 97.8891C19.1089 98.9032 17.6481 99.4616 16.0876 99.4616C12.9124 99.4616 10.3293 97.112 10.3293 94.224C10.3293 93.7766 9.93058 93.4141 9.4388 93.4141C8.94703 93.4141 8.54834 93.7766 8.54834 94.224C8.54834 97.7029 11.412 100.583 15.1075 101.022Z" fill="white"/>
<path d="M18.8777 108.048C18.8777 107.601 18.479 107.238 17.9873 107.238C13.8301 107.238 10.448 110.315 10.448 114.096C10.448 114.135 10.4495 114.174 10.4503 114.213C10.1191 114.173 9.78193 114.15 9.4388 114.15C8.94703 114.15 8.54834 114.512 8.54834 114.96C8.54834 115.407 8.94703 115.77 9.4388 115.77C12.614 115.77 15.1971 118.119 15.1971 121.007C15.1971 121.455 15.5958 121.817 16.0876 121.817C16.5794 121.817 16.9781 121.455 16.9781 121.007C16.9781 118.133 15.0236 115.668 12.2609 114.65C12.2397 114.467 12.2289 114.281 12.2289 114.096C12.2289 111.208 14.8121 108.858 17.9873 108.858C18.479 108.858 18.8777 108.496 18.8777 108.048Z" fill="white"/>
<path d="M49.2724 101.136C49.2724 99.2921 48.4626 97.5447 47.0313 96.2596C47.258 95.6 47.3727 94.9177 47.3727 94.2246C47.3727 90.8905 44.7426 88.1059 41.2708 87.4936C41.5361 86.892 41.6737 86.2471 41.6737 85.5853C41.6737 83.4733 40.2629 81.6558 38.2536 80.8703C34.9061 78.4452 31.2448 77 28.4355 77C26.8739 77 25.489 77.6985 24.6362 78.7693C23.7833 77.6985 22.3985 77 20.8369 77C18.0275 77 14.3663 78.4452 11.0187 80.8703C9.00948 81.6558 7.59863 83.4733 7.59863 85.5853C7.59863 86.2471 7.73623 86.892 8.00159 87.4936C4.52973 88.1059 1.89966 90.8905 1.89966 94.2246C1.89966 94.9177 2.01423 95.5999 2.241 96.2596C0.809729 97.5447 0 99.2921 0 101.136C0 102.578 0.492605 103.916 1.3313 105.021C0.459717 106.167 0 107.504 0 108.911C0 111.405 1.49444 113.689 3.86058 114.894C3.81985 115.202 3.79931 115.513 3.79931 115.823C3.79931 119.186 6.21128 122.16 9.71081 123.173C11.233 125.543 14.0058 127 17.0375 127C20.3614 127 23.2434 125.253 24.6362 122.716C26.029 125.253 28.911 127 32.2348 127C35.2665 127 38.0393 125.543 39.5615 123.173C43.0611 122.16 45.473 119.186 45.473 115.823C45.473 115.513 45.4525 115.202 45.4118 114.894C47.7779 113.689 49.2724 111.405 49.2724 108.911C49.2724 107.504 48.8126 106.167 47.941 105.021C48.7797 103.916 49.2724 102.578 49.2724 101.136ZM17.0375 125.38C14.5408 125.38 12.2657 124.128 11.1001 122.113C10.9845 121.913 10.7829 121.766 10.5435 121.708C7.62119 120.992 5.58024 118.572 5.58024 115.823C5.58024 115.411 5.62583 114.999 5.71571 114.598C5.79906 114.226 5.58665 113.851 5.20494 113.696C3.12494 112.855 1.78093 110.977 1.78093 108.911C1.78093 107.972 2.04878 107.074 2.55991 106.279C3.88919 107.345 5.63201 107.994 7.53926 107.994C8.03104 107.994 8.42973 107.631 8.42973 107.184C8.42973 106.736 8.03104 106.374 7.53926 106.374C4.36411 106.374 1.78093 104.024 1.78093 101.136C1.78093 99.5814 2.53509 98.1162 3.85013 97.1165C4.14695 96.8908 4.24965 96.5166 4.10421 96.1906C3.82306 95.5604 3.68059 94.8989 3.68059 94.2246C3.68059 91.3366 6.26376 88.987 9.43892 88.987C12.6141 88.987 15.1973 91.3366 15.1973 94.2246C15.1973 94.672 15.5959 95.0346 16.0877 95.0346C16.5795 95.0346 16.9782 94.672 16.9782 94.2246C16.9782 90.5916 13.8554 87.6109 9.92321 87.3828C9.56679 86.8409 9.37956 86.2247 9.37956 85.5853C9.37956 84.1416 10.3432 82.899 11.7159 82.3608C11.769 82.3464 11.821 82.3276 11.8712 82.3039C12.2965 82.1568 12.757 82.0756 13.2382 82.0756C14.7291 82.0756 16.0601 82.8338 16.7118 84.0545C16.9267 84.457 17.4595 84.6248 17.9018 84.4293C18.3442 84.2339 18.5287 83.7494 18.3138 83.347C17.5698 81.9536 16.1618 80.9521 14.5403 80.5973C16.813 79.336 19.0505 78.6199 20.8369 78.6199C22.4408 78.6199 23.7457 79.8067 23.7457 81.2657V91.7463C22.9456 91.169 21.9351 90.8229 20.8369 90.8229C20.3451 90.8229 19.9464 91.1854 19.9464 91.6328C19.9464 92.0802 20.3451 92.4428 20.8369 92.4428C22.4408 92.4428 23.7457 93.6296 23.7457 95.0886V114.557C22.6386 113.258 21.0778 112.277 19.2417 111.829C18.7669 111.713 18.2784 111.969 18.1507 112.401C18.0231 112.833 18.3047 113.277 18.7797 113.393C21.7036 114.108 23.7457 116.528 23.7457 119.279C23.7457 122.643 20.7364 125.38 17.0375 125.38ZM44.0674 113.696C43.6857 113.851 43.4733 114.226 43.5566 114.598C43.6465 114.999 43.6921 115.412 43.6921 115.823C43.6921 118.573 41.6512 120.992 38.7289 121.708C38.4894 121.766 38.2877 121.913 38.1723 122.113C37.0066 124.128 34.7315 125.38 32.2348 125.38C28.5359 125.38 25.5266 122.643 25.5266 119.279C25.5266 119.051 25.515 118.825 25.4933 118.601C25.5144 118.532 25.5266 118.46 25.5266 118.384V91.6328C25.5266 90.1739 26.8316 88.987 28.4355 88.987C28.9273 88.987 29.326 88.6245 29.326 88.1771C29.326 87.7297 28.9273 87.3672 28.4355 87.3672C27.3372 87.3672 26.3268 87.7133 25.5266 88.2906V81.2657C25.5266 79.8067 26.8316 78.6199 28.4355 78.6199C30.2219 78.6199 32.4593 79.336 34.732 80.5973C33.1105 80.9519 31.7025 81.9536 30.9586 83.347C30.7437 83.7495 30.9282 84.234 31.3706 84.4293C31.813 84.6247 32.3457 84.457 32.5606 84.0545C33.2123 82.8338 34.5432 82.0756 36.0341 82.0756C36.5153 82.0756 36.976 82.1568 37.4012 82.3039C37.4513 82.3276 37.5033 82.3463 37.5561 82.3607C38.9291 82.8989 39.8928 84.1415 39.8928 85.5853C39.8928 86.2247 39.7056 86.8409 39.3491 87.3828C35.417 87.6109 32.2942 90.5916 32.2942 94.2246C32.2942 94.672 32.6929 95.0346 33.1846 95.0346C33.6764 95.0346 34.0751 94.672 34.0751 94.2246C34.0751 91.3366 36.6583 88.987 39.8334 88.987C43.0086 88.987 45.5918 91.3366 45.5918 94.2246C45.5918 94.8989 45.4493 95.5604 45.1683 96.1906C45.0228 96.5167 45.1255 96.8908 45.4223 97.1165C46.7373 98.1162 47.4914 99.5814 47.4914 101.136C47.4914 104.024 44.9082 106.374 41.7331 106.374C41.2413 106.374 40.8426 106.736 40.8426 107.184C40.8426 107.631 41.2413 107.994 41.7331 107.994C43.6403 107.994 45.3832 107.345 46.7124 106.279C47.2237 107.074 47.4914 107.972 47.4914 108.911C47.4914 110.977 46.1474 112.855 44.0674 113.696Z" fill="white"/>
<path d="M39.8335 102.918C37.9889 102.918 36.4433 101.734 36.0645 100.158C39.76 99.7197 42.6236 96.8397 42.6236 93.3607C42.6236 92.9133 42.2249 92.5508 41.7332 92.5508C41.2414 92.5508 40.8427 92.9133 40.8427 93.3607C40.8427 96.2487 38.2595 98.5983 35.0844 98.5983C33.5239 98.5983 32.0631 98.0399 30.9709 97.0258C30.6268 96.7064 30.063 96.7011 29.7117 97.0142C29.3604 97.3272 29.3545 97.84 29.6987 98.1595C30.9337 99.3061 32.5291 100.007 34.2573 100.176C34.6662 102.642 37.0109 104.538 39.8335 104.538C40.3253 104.538 40.724 104.175 40.724 103.728C40.724 103.28 40.3253 102.918 39.8335 102.918Z" fill="white"/>
<path d="M36.9843 112.423C36.6412 112.423 36.304 112.446 35.9729 112.487C35.9736 112.447 35.9751 112.408 35.9751 112.369C35.9751 108.588 32.593 105.512 28.4359 105.512C27.9441 105.512 27.5454 105.874 27.5454 106.322C27.5454 106.769 27.9441 107.132 28.4359 107.132C31.611 107.132 34.1942 109.481 34.1942 112.369C34.1942 112.554 34.1834 112.74 34.1623 112.923C31.3996 113.942 29.4451 116.407 29.4451 119.281C29.4451 119.728 29.8438 120.091 30.3355 120.091C30.8273 120.091 31.226 119.728 31.226 119.281C31.226 116.393 33.8092 114.043 36.9843 114.043C37.4761 114.043 37.8748 113.681 37.8748 113.233C37.8748 112.786 37.4761 112.423 36.9843 112.423Z" fill="white"/>
<path d="M473.807 143.305C474.064 142.825 474.064 142.245 473.807 141.765C469.1 132.97 459.919 127 449.364 127C438.808 127 429.627 132.97 424.92 141.765C424.663 142.245 424.663 142.825 424.92 143.305C429.627 152.099 438.808 158.07 449.364 158.07C459.919 158.07 469.1 152.099 473.807 143.305ZM449.364 154.451C442.878 154.451 437.621 149.116 437.621 142.535C437.621 135.954 442.878 130.619 449.364 130.619C455.849 130.619 461.107 135.954 461.107 142.535C461.107 149.116 455.849 154.451 449.364 154.451Z" fill="white"/>
<path d="M449.363 136.461C448.869 136.461 448.39 136.522 447.93 136.637C448.401 137.189 448.686 137.908 448.686 138.695C448.686 140.435 447.296 141.846 445.581 141.846C444.805 141.846 444.096 141.557 443.552 141.08C443.439 141.546 443.379 142.032 443.379 142.534C443.379 145.888 446.058 148.606 449.363 148.606C452.668 148.606 455.348 145.888 455.348 142.534C455.348 139.18 452.668 136.461 449.363 136.461Z" fill="white"/>
<path d="M191.344 220C187.372 220 182.964 223.547 182.766 229.276C182.705 231.057 183.44 232.897 184.218 234.845C184.391 235.279 184.565 235.716 184.732 236.157C185.557 232.102 188.805 228.878 192.443 228.878C192.929 228.878 193.323 229.305 193.323 229.833C193.323 230.361 192.929 230.788 192.443 230.788C189.22 230.788 186.284 234.294 186.284 238.145C186.284 238.573 186.017 238.914 185.66 239.034C183.268 237.799 181.006 233.826 181.006 228.935C181.006 228.407 180.612 227.98 180.126 227.98C179.639 227.98 179.246 228.407 179.246 228.935C179.246 233.706 181.176 238.042 183.833 240.095C181.406 241.065 179.436 243.058 178.366 245.595C177.297 243.058 175.326 241.066 172.899 240.095C175.556 238.042 177.486 233.706 177.486 228.935C177.486 228.407 177.093 227.98 176.606 227.98C176.12 227.98 175.727 228.407 175.727 228.935C175.727 233.826 173.464 237.8 171.071 239.034C170.714 238.914 170.447 238.573 170.447 238.145C170.447 234.294 167.511 230.788 164.289 230.788C163.802 230.788 163.409 230.361 163.409 229.833C163.409 229.305 163.802 228.878 164.289 228.878C167.927 228.878 171.175 232.102 172 236.157C172.167 235.716 172.34 235.279 172.513 234.845C173.292 232.897 174.028 231.057 173.965 229.276C173.767 223.547 169.359 220 165.387 220C158.959 220 153.729 229.425 153.729 241.01C153.729 252.595 158.959 262.02 165.387 262.02C167.756 262.02 172.166 262.02 173.916 256.606C174.608 254.464 173.728 251.928 172.71 248.99C172.211 247.552 171.678 246.002 171.317 244.418C170.323 247.889 167.747 250.843 164.288 250.843C163.801 250.843 163.408 250.416 163.408 249.888C163.408 249.36 163.801 248.933 164.288 248.933C167.686 248.933 169.973 245.041 170.008 241.374C174.17 241.625 177.486 245.367 177.486 249.945V269.045C177.486 269.573 177.88 270 178.366 270C178.853 270 179.246 269.573 179.246 269.045V249.945C179.246 245.368 182.562 241.625 186.723 241.374C186.758 245.041 189.046 248.933 192.444 248.933C192.93 248.933 193.324 249.36 193.324 249.888C193.324 250.416 192.93 250.843 192.444 250.843C188.984 250.843 186.409 247.89 185.415 244.418C185.053 246.002 184.521 247.553 184.022 248.99C183.003 251.927 182.123 254.463 182.815 256.606C184.566 262.02 188.975 262.02 191.344 262.02C197.772 262.02 203.002 252.595 203.002 241.01C203.002 229.425 197.772 220 191.344 220ZM164.289 241.35C163.802 241.35 163.409 240.923 163.409 240.395C163.409 239.867 163.802 239.44 164.289 239.44H169.568C169.081 239.44 168.688 239.867 168.688 240.395C168.688 240.923 169.081 241.35 169.568 241.35H164.289ZM192.444 241.35H187.165C187.651 241.35 188.044 240.923 188.044 240.395C188.044 239.867 187.651 239.44 187.165 239.44H192.444C192.93 239.44 193.324 239.867 193.324 240.395C193.324 240.923 192.93 241.35 192.444 241.35Z" fill="white"/>
<path d="M408.902 263.694C408.258 259.276 407.072 252.684 405.141 246.378C402.647 238.255 399.529 232.673 395.859 229.776C395.024 229.112 394.018 228.765 392.973 228.765C390.388 228.765 388.276 230.878 388.276 233.48V244.051L386.406 242.082V222.071C386.406 220.929 385.481 220 384.344 220C383.208 220 382.283 220.929 382.283 222.071V241.898L380.372 243.908V233.48C380.372 230.878 378.27 228.765 375.676 228.765C374.63 228.765 373.624 229.112 372.789 229.776C369.119 232.673 366.001 238.255 363.507 246.378C361.577 252.673 360.39 259.276 359.746 263.694C359.515 265.276 359.978 266.878 361.023 268.092C362.059 269.306 363.568 270 365.167 270H368.747C369.672 270 370.497 269.378 370.738 268.48C371.321 266.347 373.111 264.765 375.273 264.388C377.385 264.02 376.983 261.806 376.983 261.653C376.983 259.765 377.908 258.01 379.467 256.949C380.03 256.561 380.372 255.918 380.372 255.224V249.878L384.254 245.816L388.276 250.041V255.224C388.276 255.908 388.618 256.561 389.181 256.949C390.74 258.01 391.665 259.776 391.665 261.653C391.665 261.806 391.263 264.01 393.375 264.388C395.537 264.765 397.327 266.347 397.91 268.48C398.162 269.378 398.976 270 399.901 270H403.482C405.081 270 406.589 269.306 407.635 268.092C408.671 266.878 409.133 265.276 408.902 263.694V263.694ZM376.239 254.204C374.328 255.867 373.131 258.194 372.89 260.724C370.436 261.612 368.415 263.459 367.309 265.837H365.167C364.634 265.837 364.302 265.541 364.151 265.367C364 265.194 363.759 264.816 363.839 264.286C364.463 260.01 365.609 253.643 367.46 247.592C369.662 240.398 372.397 235.367 375.344 233.041C375.454 232.959 375.555 232.918 375.676 232.918C375.857 232.918 376.239 233.051 376.239 233.469V254.204ZM404.497 265.378C404.346 265.551 404.015 265.847 403.482 265.847H401.34C400.233 263.469 398.222 261.612 395.758 260.735C395.517 258.204 394.32 255.878 392.409 254.214V233.48C392.409 233.061 392.782 232.929 392.973 232.929C393.093 232.929 393.204 232.969 393.304 233.051C396.251 235.378 398.986 240.408 401.189 247.602C403.049 253.653 404.185 260.02 404.809 264.296C404.889 264.827 404.648 265.204 404.497 265.378V265.378Z" fill="white"/>
<path d="M61.8443 237.485C61.8443 236.801 61.7058 236.127 61.4326 235.474C61.8003 234.818 61.9936 234.102 61.9936 233.385C61.9936 232.423 61.6585 231.494 61.0356 230.694C61.5673 229.848 61.8443 228.9 61.8443 227.912C61.8443 225.337 59.9423 223.109 57.3516 222.56C55.8648 220.29 52.7092 219.332 50.1334 220.507C48.0088 219.546 45.4731 219.998 43.8367 221.462C42.0589 219.563 38.9781 219.587 37.2182 221.507C35.2707 219.807 32.034 219.506 29.7241 220.924C27.493 219.515 24.4223 219.773 22.4602 221.487C21.501 220.905 20.4005 220.591 19.2848 220.591C15.9634 220.591 13.2607 223.192 13.2607 226.39C13.2607 227.316 13.4866 228.214 13.9214 229.029C13.2009 229.986 12.811 231.13 12.811 232.317C12.811 233.012 12.9514 233.698 13.2272 234.363C12.9532 234.876 12.811 235.414 12.811 235.963C12.811 236.967 13.2536 237.904 14.0608 238.661C13.2536 239.416 12.811 240.355 12.811 241.359C12.811 242.366 13.25 243.307 14.0608 244.071C13.8768 244.651 13.7846 245.242 13.7846 245.842C13.7846 248.801 15.99 251.298 18.8632 251.659C19.3387 252.079 19.8542 252.465 20.3945 252.818C22.8258 254.401 25.7188 255.296 26.71 253.73C27.5771 252.367 26.1424 250.516 24.3999 249.115C25.0405 248.152 25.3837 247.021 25.3837 245.84C25.3837 244.646 25.0294 243.51 24.3496 242.52C24.4882 242.143 24.5591 241.755 24.5591 241.36C24.5591 240.355 24.1166 239.418 23.3084 238.661C24.1166 237.906 24.5591 236.967 24.5591 235.964C24.5591 235.415 24.4187 234.879 24.1429 234.364C24.4173 233.698 24.5591 233.012 24.5591 232.317C24.5591 231.954 24.5199 231.589 24.4454 231.233C26.3929 231.92 28.6201 231.549 30.2133 230.322C32.4705 231.444 35.3993 231.049 37.2167 229.463C38.9739 231.385 42.0592 231.406 43.837 229.508C45.4805 230.977 48.0058 231.428 50.1337 230.458C50.5053 230.625 50.8916 230.75 51.2994 230.837L51.343 230.909C50.8183 231.661 50.5412 232.505 50.5412 233.384C50.5412 233.987 50.6797 234.583 50.9493 235.158C50.5849 235.893 50.3919 236.686 50.3919 237.484C50.3919 238.547 50.727 239.589 51.343 240.485C50.8183 241.234 50.5412 242.079 50.5412 242.957C50.5412 243.777 50.7889 244.575 51.2518 245.291C49.9619 246.327 49.1912 247.854 49.1912 249.49L49.2002 249.649C48.4423 250.243 47.8502 251.029 47.4951 251.897C45.9539 251.795 44.4199 252.332 43.274 253.354C42.3647 252.8 41.3136 252.5 40.2422 252.5C38.4694 252.5 36.84 253.278 35.7578 254.612C32.1177 253.787 28.8283 256.554 28.8283 259.975C28.8283 260.866 29.0596 261.744 29.5024 262.539C29.3732 263.347 29.5225 264.715 29.9013 267.307C30.0078 268.022 30.1254 268.834 30.1254 269.054C30.1254 269.573 30.5433 270 31.0583 270C31.5732 270 31.9912 269.573 31.9912 269.054C31.9912 268.706 31.9038 268.091 31.7461 267.028C31.5714 265.832 31.2079 263.345 31.2881 262.935C31.4984 262.615 31.4984 262.197 31.2863 261.877C30.9 261.289 30.6941 260.635 30.6941 259.975C30.6941 257.982 32.4259 256.368 34.5529 256.368C34.9628 256.368 35.3826 256.441 35.8383 256.595C36.241 256.728 36.691 256.565 36.9205 256.203C37.6275 255.066 38.87 254.393 40.2428 254.393C41.1685 254.393 42.07 254.722 42.7899 255.318C43.18 255.649 43.7611 255.593 44.0926 255.199C45.0216 254.082 46.5849 253.589 47.9513 253.87C48.4576 253.979 48.9312 253.655 49.0443 253.154C49.2484 252.249 49.8459 251.424 50.6767 250.906C51.0011 250.707 51.1575 250.235 51.0956 249.858L51.0573 249.492C51.0573 248.195 51.826 246.996 53.0613 246.355C53.3327 246.215 53.5167 245.95 53.5622 245.645C53.6005 245.343 53.5003 245.036 53.2816 244.824C52.8806 244.439 52.407 243.805 52.407 242.959C52.407 242.154 52.8426 241.537 53.2121 241.162C53.5619 240.801 53.5691 240.218 53.2268 239.846C52.6 239.178 52.2577 238.34 52.2577 237.488C52.2577 236.86 52.4399 236.253 52.8004 235.682C52.9937 235.373 52.9952 234.978 52.8043 234.667C52.538 234.241 52.407 233.811 52.407 233.388C52.407 232.584 52.8426 231.968 53.2121 231.591C53.5619 231.228 53.5691 230.644 53.2268 230.275C53.0192 230.052 52.8334 229.801 52.6876 229.528C52.5491 229.262 52.2867 229.084 51.9953 229.042C51.4891 228.975 51.0115 228.82 50.5744 228.577C50.2973 228.426 49.9584 228.426 49.6816 228.577C47.8562 229.586 45.6191 229.02 44.5183 227.485C44.3325 227.225 44.0776 227.057 43.7168 227.097C43.4032 227.111 43.1193 227.286 42.9589 227.56C42.4015 228.522 41.4976 229.098 40.5432 229.098C39.575 229.098 38.6669 228.509 38.1029 227.526C37.9461 227.25 37.6667 227.074 37.3531 227.055C37.047 227.029 36.7392 227.176 36.5507 227.429C35.2952 229.124 32.495 229.601 30.596 228.382C30.2361 228.145 29.7597 228.196 29.4501 228.499C27.9687 229.941 25.4411 230.086 23.7656 228.732C23.3686 228.406 22.7008 228.579 22.3773 228.977L22.2361 229.139C21.8944 229.453 21.831 229.972 22.085 230.362C22.4859 230.973 22.6873 231.634 22.6873 232.324C22.6873 232.884 22.5425 233.442 22.2529 233.986C22.0814 234.309 22.1098 234.703 22.3256 234.998C22.5661 235.328 22.6873 235.655 22.6873 235.969C22.6873 236.663 22.1634 237.342 21.2487 237.828C20.9436 237.993 20.7515 238.315 20.7515 238.665C20.7515 239.015 20.9439 239.337 21.2487 239.503C22.1634 239.991 22.6873 240.668 22.6873 241.361C22.6873 241.629 22.6107 241.887 22.4542 242.157C22.2511 242.507 22.2864 242.948 22.5479 243.257C22.9859 243.777 23.5125 244.65 23.5125 245.842C23.5125 246.891 23.1127 247.879 22.3875 248.635C22.1936 248.832 22.0979 249.112 22.126 249.387C22.1541 249.667 22.3007 249.918 22.5287 250.075C24.0792 251.148 24.8687 252.183 25.051 252.654C24.5456 252.693 23.1654 252.377 21.3962 251.225C20.8517 250.868 20.3386 250.473 19.8724 250.045C19.7174 249.903 19.52 249.818 19.3114 249.803C17.2553 249.661 15.645 247.921 15.645 245.839C15.645 245.273 15.7698 244.709 16.022 244.162C16.2144 243.743 16.0777 243.246 15.7034 242.984C15.3171 242.715 14.6712 242.149 14.6712 241.358C14.6712 240.665 15.1959 239.986 16.1097 239.498C16.4158 239.334 16.6082 239.012 16.6082 238.662C16.6082 238.312 16.4158 237.99 16.1097 237.825C15.1959 237.337 14.6712 236.659 14.6712 235.966C14.6712 235.652 14.7923 235.325 15.0329 234.995C15.2498 234.7 15.2779 234.306 15.1059 233.982C14.8172 233.439 14.6712 232.88 14.6712 232.319C14.6712 231.388 15.0484 230.487 15.7324 229.788C16.0558 229.457 16.095 228.941 15.8264 228.566C15.3635 227.921 15.1194 227.171 15.1194 226.394C15.1194 224.24 16.9849 222.489 19.2776 222.489C20.2641 222.489 21.197 222.823 21.9767 223.453C22.3665 223.769 22.9323 223.719 23.2603 223.337C24.6895 221.685 27.3739 221.419 29.1347 222.825C29.4725 223.091 29.9447 223.095 30.2807 222.828C32.1554 221.365 35.2243 221.76 36.5489 223.549C36.7374 223.803 37.0416 223.947 37.3516 223.925C37.6649 223.905 37.9446 223.728 38.1011 223.453C38.6621 222.469 39.5732 221.882 40.5399 221.882C41.4943 221.882 42.3982 222.457 42.9592 223.419C43.1157 223.695 43.4035 223.867 43.7171 223.883C44.0668 223.932 44.3292 223.751 44.515 223.494C45.6209 221.957 47.8891 221.404 49.6783 222.398C49.9554 222.552 50.2941 222.556 50.5708 222.398C52.5204 221.32 54.9726 222.075 55.9492 223.878C56.0913 224.144 56.3537 224.324 56.6451 224.364C58.5436 224.613 59.9716 226.14 59.9716 227.917C59.9716 228.932 59.5052 229.691 59.1156 230.147C58.7802 230.537 58.8167 231.124 59.1922 231.469C59.6186 231.859 60.1212 232.509 60.1212 233.391C60.1212 233.895 59.9462 234.386 59.609 234.85C59.3921 235.147 59.3634 235.548 59.5417 235.871C59.8256 236.4 59.9716 236.944 59.9716 237.489C59.9716 238.501 59.5052 239.262 59.1156 239.721C58.7802 240.109 58.8167 240.698 59.1922 241.041C59.7897 241.592 60.1212 242.273 60.1212 242.962C60.1212 244.041 59.3448 245.044 58.0954 245.58C57.8111 245.702 57.6032 245.957 57.5412 246.262C57.4832 246.569 57.5706 246.885 57.7854 247.106C58.423 247.778 58.7727 248.626 58.7727 249.493C58.7727 250.693 58.1298 251.812 57.053 252.486C56.7325 252.684 56.5736 253.13 56.6323 253.507L56.6742 253.899C56.6742 255.888 54.9397 257.504 52.8121 257.504C52.5333 257.504 52.2547 257.471 51.9923 257.417C51.4894 257.308 51.0121 257.635 50.8972 258.134C50.5274 259.794 48.9408 261.001 47.1276 261.001C46.1876 261.001 45.3058 260.681 44.5806 260.075C44.1907 259.75 43.6079 259.798 43.2763 260.192C42.2672 261.404 40.7221 261.972 38.9574 261.379C38.5622 261.246 38.0511 261.525 37.8163 261.883C37.6068 262.203 37.5584 262.527 37.7708 262.845C37.9392 263.371 37.6795 265.876 37.5694 266.945C37.4928 267.692 37.4336 268.304 37.4336 268.583C37.4336 269.103 37.8516 269.53 38.3665 269.53C38.8814 269.53 39.2991 269.103 39.2991 268.583C39.2991 268.339 39.3565 267.799 39.426 267.139C39.5971 265.496 39.6964 264.318 39.6893 263.471C41.3253 263.651 42.9155 263.098 44.1036 262.039C45.0144 262.593 46.0658 262.893 47.1315 262.893C49.5036 262.893 51.6207 261.458 52.4621 259.383C55.7051 259.583 58.5472 257.043 58.5472 253.896L58.5433 253.74C59.8696 252.695 60.6454 251.15 60.6454 249.49C60.6454 248.521 60.3723 247.582 59.866 246.748C61.1996 245.834 61.9918 244.453 61.9918 242.958C61.9918 241.996 61.6549 241.065 61.0356 240.268C61.5673 239.418 61.8443 238.469 61.8443 237.485Z" fill="white"/>
<path d="M515 147H516" stroke="#FF6347" stroke-width="3" stroke-linecap="round"/>
</svg>
